<mxfile modified="2020-12-15T11:41:06.536Z" host="app.diagrams.net" agent="5.0 (Macintosh; Intel Mac OS X 11_0_1) AppleWebKit/537.36 (KHTML, like Gecko) Chrome/87.0.4280.88 Safari/537.36" etag="Lcgqgt3TTYjyaCIbXZYd" version="14.0.1" type="github" pages="3">
  <diagram id="Ht1M8jgEwFfnCIfOTk4-" name="Page-1">
    <mxGraphModel dx="946" dy="614" grid="1" gridSize="9" guides="1" tooltips="1" connect="1" arrows="1" fold="1" page="1" pageScale="1" pageWidth="1169" pageHeight="827" background="#F7F7F7" math="0" shadow="0">
      <root>
        <mxCell id="0" />
        <mxCell id="1" parent="0" />
        <mxCell id="gujRcCWIBDEGuzVIZGDQ-25" value="&lt;font style=&quot;font-size: 18px&quot;&gt;read&lt;/font&gt;" style="edgeStyle=none;orthogonalLoop=1;jettySize=auto;html=1;exitX=0.317;exitY=0.963;exitDx=0;exitDy=0;entryX=1;entryY=0.5;entryDx=0;entryDy=0;strokeColor=#006658;fontColor=#5C5C5C;exitPerimeter=0;sketch=1;curved=1;" parent="1" source="gujRcCWIBDEGuzVIZGDQ-41" edge="1">
          <mxGeometry x="-0.6625" relative="1" as="geometry">
            <mxPoint x="873" y="300" as="sourcePoint" />
            <mxPoint x="358" y="351" as="targetPoint" />
            <mxPoint as="offset" />
          </mxGeometry>
        </mxCell>
        <mxCell id="gujRcCWIBDEGuzVIZGDQ-4" value="fork" style="text;html=1;align=center;verticalAlign=middle;resizable=0;points=[];autosize=1;fontColor=#5C5C5C;fontSize=18;rounded=1;sketch=1;" parent="1" vertex="1">
          <mxGeometry x="500" y="187" width="40" height="20" as="geometry" />
        </mxCell>
        <mxCell id="gujRcCWIBDEGuzVIZGDQ-13" style="edgeStyle=orthogonalEdgeStyle;orthogonalLoop=1;jettySize=auto;html=1;exitX=1;exitY=0.5;exitDx=0;exitDy=0;dashed=1;strokeColor=#006658;fontColor=#5C5C5C;sketch=1;curved=1;" parent="1" source="gujRcCWIBDEGuzVIZGDQ-11" edge="1">
          <mxGeometry relative="1" as="geometry">
            <mxPoint x="607" y="493" as="targetPoint" />
          </mxGeometry>
        </mxCell>
        <mxCell id="gujRcCWIBDEGuzVIZGDQ-11" value="&lt;font style=&quot;font-size: 18px&quot;&gt;k3,v3&lt;/font&gt;" style="whiteSpace=wrap;html=1;fillColor=#b1ddf0;strokeColor=#10739e;rounded=1;strokeWidth=2;sketch=1;" parent="1" vertex="1">
          <mxGeometry x="244" y="467" width="112" height="51" as="geometry" />
        </mxCell>
        <mxCell id="gujRcCWIBDEGuzVIZGDQ-15" value="&lt;font style=&quot;font-size: 18px&quot;&gt;写时复制&lt;/font&gt;" style="text;html=1;align=center;verticalAlign=middle;resizable=0;points=[];autosize=1;fontColor=#5C5C5C;rounded=1;sketch=1;" parent="1" vertex="1">
          <mxGeometry x="445" y="462" width="82" height="20" as="geometry" />
        </mxCell>
        <mxCell id="gujRcCWIBDEGuzVIZGDQ-22" value="&lt;font style=&quot;font-size: 18px&quot;&gt;修改&lt;/font&gt;" style="text;html=1;align=center;verticalAlign=middle;resizable=0;points=[];autosize=1;fontColor=#5C5C5C;rounded=1;sketch=1;" parent="1" vertex="1">
          <mxGeometry x="126" y="398" width="46" height="20" as="geometry" />
        </mxCell>
        <mxCell id="gujRcCWIBDEGuzVIZGDQ-23" value="&lt;blockquote&gt;&lt;font style=&quot;font-size: 18px&quot;&gt;副本&lt;/font&gt;&lt;/blockquote&gt;" style="text;html=1;align=center;verticalAlign=middle;resizable=0;points=[];autosize=1;fontColor=#5C5C5C;rounded=1;sketch=1;" parent="1" vertex="1">
          <mxGeometry x="601" y="424" width="126" height="44" as="geometry" />
        </mxCell>
        <mxCell id="gujRcCWIBDEGuzVIZGDQ-36" value="&lt;font style=&quot;font-size: 18px&quot;&gt;k1,v1&lt;/font&gt;" style="whiteSpace=wrap;html=1;fillColor=#b1ddf0;strokeColor=#10739e;rounded=1;strokeWidth=2;sketch=1;" parent="1" vertex="1">
          <mxGeometry x="244" y="328" width="112" height="51" as="geometry" />
        </mxCell>
        <mxCell id="gujRcCWIBDEGuzVIZGDQ-37" value="&lt;font style=&quot;font-size: 18px&quot;&gt;k2,v2&lt;/font&gt;" style="whiteSpace=wrap;html=1;fillColor=#b1ddf0;strokeColor=#10739e;rounded=1;strokeWidth=2;sketch=1;" parent="1" vertex="1">
          <mxGeometry x="244" y="398" width="112" height="51" as="geometry" />
        </mxCell>
        <mxCell id="gujRcCWIBDEGuzVIZGDQ-42" style="edgeStyle=orthogonalEdgeStyle;orthogonalLoop=1;jettySize=auto;html=1;exitX=1;exitY=0.5;exitDx=0;exitDy=0;entryX=0;entryY=0.5;entryDx=0;entryDy=0;strokeColor=#006658;fillColor=#21C0A5;fontColor=#5C5C5C;sketch=1;curved=1;" parent="1" source="gujRcCWIBDEGuzVIZGDQ-38" target="gujRcCWIBDEGuzVIZGDQ-41" edge="1">
          <mxGeometry relative="1" as="geometry" />
        </mxCell>
        <mxCell id="gujRcCWIBDEGuzVIZGDQ-43" value="&lt;font style=&quot;font-size: 18px&quot;&gt;read&lt;/font&gt;" style="edgeStyle=orthogonalEdgeStyle;orthogonalLoop=1;jettySize=auto;html=1;entryX=0;entryY=0.5;entryDx=0;entryDy=0;strokeColor=#006658;fillColor=#21C0A5;fontColor=#5C5C5C;sketch=1;curved=1;" parent="1" source="gujRcCWIBDEGuzVIZGDQ-38" target="gujRcCWIBDEGuzVIZGDQ-36" edge="1">
          <mxGeometry x="-0.1886" relative="1" as="geometry">
            <Array as="points">
              <mxPoint x="201" y="354" />
            </Array>
            <mxPoint as="offset" />
          </mxGeometry>
        </mxCell>
        <mxCell id="gujRcCWIBDEGuzVIZGDQ-51" style="edgeStyle=orthogonalEdgeStyle;orthogonalLoop=1;jettySize=auto;html=1;exitX=0;exitY=1;exitDx=0;exitDy=0;entryX=0;entryY=0.5;entryDx=0;entryDy=0;strokeColor=#006658;fillColor=#21C0A5;fontColor=#5C5C5C;sketch=1;curved=1;" parent="1" source="gujRcCWIBDEGuzVIZGDQ-38" target="gujRcCWIBDEGuzVIZGDQ-11" edge="1">
          <mxGeometry relative="1" as="geometry" />
        </mxCell>
        <mxCell id="gujRcCWIBDEGuzVIZGDQ-38" value="&lt;font style=&quot;font-size: 18px&quot;&gt;主线程&lt;/font&gt;" style="ellipse;whiteSpace=wrap;html=1;strokeColor=#ae4132;fillColor=#fad9d5;rounded=1;strokeWidth=2;sketch=1;" parent="1" vertex="1">
          <mxGeometry x="141" y="176" width="120" height="80" as="geometry" />
        </mxCell>
        <mxCell id="gujRcCWIBDEGuzVIZGDQ-45" style="edgeStyle=orthogonalEdgeStyle;orthogonalLoop=1;jettySize=auto;html=1;exitX=0.5;exitY=1;exitDx=0;exitDy=0;strokeColor=#006658;fillColor=#21C0A5;fontColor=#5C5C5C;sketch=1;curved=1;" parent="1" source="gujRcCWIBDEGuzVIZGDQ-41" target="gujRcCWIBDEGuzVIZGDQ-46" edge="1">
          <mxGeometry relative="1" as="geometry">
            <mxPoint x="535" y="629" as="targetPoint" />
            <Array as="points">
              <mxPoint x="837" y="626" />
            </Array>
          </mxGeometry>
        </mxCell>
        <mxCell id="gujRcCWIBDEGuzVIZGDQ-49" value="&lt;font style=&quot;font-size: 18px&quot;&gt;写快照&lt;/font&gt;" style="edgeLabel;html=1;align=center;verticalAlign=middle;resizable=0;points=[];fontColor=#5C5C5C;rounded=1;sketch=1;" parent="gujRcCWIBDEGuzVIZGDQ-45" vertex="1" connectable="0">
          <mxGeometry x="-0.4362" y="3" relative="1" as="geometry">
            <mxPoint as="offset" />
          </mxGeometry>
        </mxCell>
        <mxCell id="gujRcCWIBDEGuzVIZGDQ-48" value="&lt;font style=&quot;font-size: 18px&quot;&gt;read&lt;/font&gt;" style="orthogonalLoop=1;jettySize=auto;html=1;exitX=0.5;exitY=1;exitDx=0;exitDy=0;strokeColor=#006658;fillColor=#21C0A5;fontColor=#5C5C5C;sketch=1;curved=1;" parent="1" source="gujRcCWIBDEGuzVIZGDQ-41" edge="1">
          <mxGeometry relative="1" as="geometry">
            <mxPoint x="721" y="484" as="targetPoint" />
          </mxGeometry>
        </mxCell>
        <mxCell id="gujRcCWIBDEGuzVIZGDQ-41" value="&lt;font style=&quot;font-size: 18px&quot;&gt;bgsave子线程&lt;/font&gt;" style="ellipse;whiteSpace=wrap;html=1;strokeColor=#ae4132;fillColor=#fad9d5;rounded=1;strokeWidth=2;sketch=1;" parent="1" vertex="1">
          <mxGeometry x="777" y="176" width="120" height="80" as="geometry" />
        </mxCell>
        <mxCell id="gujRcCWIBDEGuzVIZGDQ-44" value="&lt;font style=&quot;font-size: 18px&quot;&gt;k3,v3&lt;/font&gt;" style="whiteSpace=wrap;html=1;strokeColor=#0e8088;rounded=1;strokeWidth=2;fillColor=#BBF2F5;sketch=1;" parent="1" vertex="1">
          <mxGeometry x="608" y="467" width="112" height="51" as="geometry" />
        </mxCell>
        <mxCell id="gujRcCWIBDEGuzVIZGDQ-46" value="" style="strokeColor=#006658;shadow=1;strokeWidth=2;absoluteArcSize=1;arcSize=2;fillColor=#21C0A5;fontColor=#5C5C5C;rounded=1;sketch=1;" parent="1" vertex="1">
          <mxGeometry x="445" y="592" width="166" height="67" as="geometry" />
        </mxCell>
        <mxCell id="gujRcCWIBDEGuzVIZGDQ-47" value="&lt;font style=&quot;font-size: 18px&quot;&gt;Persistent&lt;br&gt;Disk&lt;/font&gt;" style="dashed=0;connectable=0;html=1;fillColor=#21C0A5;strokeColor=none;shape=mxgraph.gcp2.persistent_disk_snapshot;part=1;labelPosition=right;verticalLabelPosition=middle;align=left;verticalAlign=middle;spacingLeft=5;fontSize=12;fontColor=#5C5C5C;rounded=1;sketch=1;" parent="gujRcCWIBDEGuzVIZGDQ-46" vertex="1">
          <mxGeometry y="0.5" width="54" height="39.5" relative="1" as="geometry">
            <mxPoint x="5" y="-16" as="offset" />
          </mxGeometry>
        </mxCell>
        <mxCell id="gujRcCWIBDEGuzVIZGDQ-52" value="&lt;font style=&quot;font-size: 18px&quot;&gt;内存&lt;br&gt;&lt;br&gt;&lt;/font&gt;" style="rounded=1;whiteSpace=wrap;html=1;sketch=1;strokeWidth=1;fillColor=none;dashed=1;dashPattern=1 4;" parent="1" vertex="1">
          <mxGeometry x="225" y="293" width="522" height="261" as="geometry" />
        </mxCell>
      </root>
    </mxGraphModel>
  </diagram>
  <diagram id="5dIfOBIl1GBnEeuLO6RK" name="Page-2">
    <mxGraphModel dx="1351" dy="877" grid="1" gridSize="10" guides="1" tooltips="1" connect="1" arrows="1" fold="1" page="1" pageScale="1" pageWidth="413" pageHeight="291" math="0" shadow="0">
      <root>
        <mxCell id="0o_elFvpESfyr6hmDg9E-0" />
        <mxCell id="0o_elFvpESfyr6hmDg9E-1" parent="0o_elFvpESfyr6hmDg9E-0" />
        <mxCell id="0o_elFvpESfyr6hmDg9E-5" style="orthogonalLoop=1;jettySize=auto;html=1;exitX=0.5;exitY=1;exitDx=0;exitDy=0;strokeColor=#006658;fontColor=#5C5C5C;curved=1;" edge="1" parent="0o_elFvpESfyr6hmDg9E-1" source="0o_elFvpESfyr6hmDg9E-2">
          <mxGeometry relative="1" as="geometry">
            <mxPoint x="407.9999999999998" y="430.75862068965534" as="targetPoint" />
            <Array as="points">
              <mxPoint x="430" y="430" />
            </Array>
          </mxGeometry>
        </mxCell>
        <mxCell id="0o_elFvpESfyr6hmDg9E-10" style="edgeStyle=none;orthogonalLoop=1;jettySize=auto;html=1;exitX=0.5;exitY=1;exitDx=0;exitDy=0;strokeColor=#006658;fontColor=#5C5C5C;curved=1;" edge="1" parent="0o_elFvpESfyr6hmDg9E-1" source="0o_elFvpESfyr6hmDg9E-2" target="0o_elFvpESfyr6hmDg9E-6">
          <mxGeometry relative="1" as="geometry" />
        </mxCell>
        <mxCell id="0o_elFvpESfyr6hmDg9E-2" value="&lt;font style=&quot;font-size: 25px&quot; face=&quot;Comic Sans MS&quot;&gt;Redis&lt;/font&gt;" style="whiteSpace=wrap;html=1;strokeWidth=2;strokeColor=#B20000;fontColor=#ffffff;fillColor=#FF3333;rounded=1;" vertex="1" parent="0o_elFvpESfyr6hmDg9E-1">
          <mxGeometry x="450" y="110" width="230" height="100" as="geometry" />
        </mxCell>
        <mxCell id="0o_elFvpESfyr6hmDg9E-6" value="" style="pointerEvents=1;shadow=0;dashed=0;html=1;strokeColor=none;fillColor=#21C0A5;aspect=fixed;labelPosition=center;verticalLabelPosition=bottom;verticalAlign=top;align=center;outlineConnect=0;shape=mxgraph.vvd.disk;fontColor=#5C5C5C;rounded=1;" vertex="1" parent="0o_elFvpESfyr6hmDg9E-1">
          <mxGeometry x="808" y="368" width="112" height="160" as="geometry" />
        </mxCell>
        <mxCell id="0o_elFvpESfyr6hmDg9E-14" value="&lt;font style=&quot;font-size: 22px&quot;&gt;&lt;b&gt;1. 执行写操作到内存&lt;/b&gt;&lt;/font&gt;" style="text;html=1;strokeColor=none;fillColor=none;align=center;verticalAlign=middle;whiteSpace=wrap;fontColor=#5C5C5C;rounded=1;" vertex="1" parent="0o_elFvpESfyr6hmDg9E-1">
          <mxGeometry x="280" y="300" width="198" height="20" as="geometry" />
        </mxCell>
        <mxCell id="0o_elFvpESfyr6hmDg9E-15" value="&lt;font style=&quot;font-size: 23px&quot;&gt;&lt;b&gt;2. 记日志&lt;/b&gt;&lt;/font&gt;" style="text;html=1;strokeColor=none;fillColor=none;align=center;verticalAlign=middle;whiteSpace=wrap;fontColor=#5C5C5C;rounded=1;" vertex="1" parent="0o_elFvpESfyr6hmDg9E-1">
          <mxGeometry x="680" y="310" width="198" height="20" as="geometry" />
        </mxCell>
        <mxCell id="0o_elFvpESfyr6hmDg9E-18" value="" style="shape=image;html=1;verticalAlign=top;verticalLabelPosition=bottom;labelBackgroundColor=#ffffff;imageAspect=0;aspect=fixed;image=https://cdn1.iconfinder.com/data/icons/computer-hardware-cute-style-vol-2/52/ram__hardware__memory__memorycard__electronics__chip__technology-128.png;strokeColor=#006658;fillColor=#21C0A5;fontColor=#5C5C5C;rounded=1;" vertex="1" parent="0o_elFvpESfyr6hmDg9E-1">
          <mxGeometry x="210" y="349" width="198" height="198" as="geometry" />
        </mxCell>
      </root>
    </mxGraphModel>
  </diagram>
  <diagram id="VR7yOiWhCmAujs4RZeKL" name="Page-3">
    <mxGraphModel dx="946" dy="614" grid="1" gridSize="10" guides="1" tooltips="1" connect="1" arrows="1" fold="1" page="1" pageScale="1" pageWidth="1169" pageHeight="827" math="0" shadow="0">
      <root>
        <mxCell id="GWesP8Y1Yqta4yuz0h0V-0" />
        <mxCell id="GWesP8Y1Yqta4yuz0h0V-1" parent="GWesP8Y1Yqta4yuz0h0V-0" />
        <mxCell id="GWesP8Y1Yqta4yuz0h0V-7" style="edgeStyle=orthogonalEdgeStyle;rounded=1;orthogonalLoop=1;jettySize=auto;html=1;exitX=1;exitY=0.5;exitDx=0;exitDy=0;entryX=0.5;entryY=1;entryDx=0;entryDy=0;strokeColor=#006658;fillColor=#21C0A5;fontColor=#5C5C5C;" edge="1" parent="GWesP8Y1Yqta4yuz0h0V-1" source="GWesP8Y1Yqta4yuz0h0V-2" target="GWesP8Y1Yqta4yuz0h0V-4">
          <mxGeometry relative="1" as="geometry" />
        </mxCell>
        <mxCell id="GWesP8Y1Yqta4yuz0h0V-2" value="&lt;font face=&quot;Comic Sans MS&quot; style=&quot;font-size: 18px&quot;&gt;Redis&lt;/font&gt;" style="rounded=1;whiteSpace=wrap;html=1;strokeWidth=2;fillColor=#f8cecc;strokeColor=#b85450;" vertex="1" parent="GWesP8Y1Yqta4yuz0h0V-1">
          <mxGeometry x="80" y="257.5" width="120" height="60" as="geometry" />
        </mxCell>
        <mxCell id="GWesP8Y1Yqta4yuz0h0V-4" value="" style="rounded=1;whiteSpace=wrap;html=1;strokeWidth=2;rotation=90;fillColor=#21C0A5;strokeColor=#006658;fontColor=#5C5C5C;" vertex="1" parent="GWesP8Y1Yqta4yuz0h0V-1">
          <mxGeometry x="345" y="225" width="275" height="125" as="geometry" />
        </mxCell>
        <mxCell id="GWesP8Y1Yqta4yuz0h0V-5" value="&lt;font style=&quot;font-size: 18px&quot; face=&quot;Comic Sans MS&quot;&gt;AOF 文件&lt;/font&gt;" style="text;html=1;align=center;verticalAlign=middle;resizable=0;points=[];autosize=1;fontColor=#5C5C5C;" vertex="1" parent="GWesP8Y1Yqta4yuz0h0V-1">
          <mxGeometry x="432.5" y="120" width="100" height="20" as="geometry" />
        </mxCell>
        <mxCell id="GWesP8Y1Yqta4yuz0h0V-6" value="&lt;font style=&quot;font-size: 22px&quot; face=&quot;Comic Sans MS&quot;&gt;*3&lt;br&gt;$3&lt;br&gt;set&lt;br&gt;$7&lt;br&gt;testkey&lt;br&gt;$9&lt;br&gt;testvalue&lt;/font&gt;" style="text;html=1;strokeColor=none;fillColor=none;align=center;verticalAlign=middle;whiteSpace=wrap;rounded=0;fontColor=#5C5C5C;" vertex="1" parent="GWesP8Y1Yqta4yuz0h0V-1">
          <mxGeometry x="450" y="172.5" width="60" height="230" as="geometry" />
        </mxCell>
        <mxCell id="GWesP8Y1Yqta4yuz0h0V-8" value="&lt;font style=&quot;font-size: 16px&quot; face=&quot;Comic Sans MS&quot;&gt;set testkey testvalue&lt;/font&gt;" style="text;html=1;align=center;verticalAlign=middle;resizable=0;points=[];autosize=1;fontColor=#5C5C5C;" vertex="1" parent="GWesP8Y1Yqta4yuz0h0V-1">
          <mxGeometry x="220" y="260" width="180" height="20" as="geometry" />
        </mxCell>
      </root>
    </mxGraphModel>
  </diagram>
</mxfile>
